Storyline: Sherlock Holmes (Robert Downey, Jr.) and his longtime trusted associate, Doctor Watson (Jude Law), take on their arch-nemesis, Professor Moriarty (Jared Harris), with the help of Holmes's older brother Mycroft Holmes (Stephen Fry) and a gypsy named Sim (Noomi Rapace).…

Cast: Robert Downey Jr. / Jude Law / Noomi Rapace / Rachel McAdams / Jared Harris / Stephen Fry / Paul Anderson / Kelly Reilly / Geraldine James / Eddie Marsan / William Houston / Wolf Kahler / Iain Mitchell / Jack Laskey / Patricia Slater

Genres: Action / Adventure / Crime / Mystery / Thriller

Language: English

IMDB:
  
http://www.imdb.com/title/tt1515091/
 
SOURCES:
 
VIDEO - 26k thx
 AUDIO - Used DTRG line Sources: UnKnoWn/26k thx
 SUBS - ENG HC
 
STATS:
 
Video
 ID: 0
 Format: MPEG-4 Visual
 Format profile: Advanced Simple@L5
 Format settings, BVOP: 2
 Format settings, QPel: No
 Format settings, GMC: No warppoints
 Format settings, Matrix: Default (MPEG)
 Muxing mode: Packed bitstream
 Codec ID: XVID
 Codec ID/Hint: XviD
 Duration: 2h 0mn 31sec
 Bit rate: 1 042 Kbps
 Width: 720 pixels
 Height: 304 pixels
 Display aspect ratio: 2.35:1
 Frame rate: 25.000 fps
 Color space: YUV
 Chroma subsampling: 4:2:0
 Bit depth: 8 bits
 Scan type: Progressive
 Compression mode: Lossy
 Bits/(Pixel*Frame): 0.396
 Stream size: 1.82 GiB (94%)
 Writing library: XviD
 
Audio
 ID: 1
 Format: MPEG Audio
 Format version: Version 1
 Format profile: Layer 3
 Mode: Joint stereo
 Mode extension: MS Stereo
 Codec ID: 55
 Codec ID/Hint: MP3
 Duration: 2h 0mn
 Bit rate mode: Constant
 Bit rate: 128 Kbps
 Channel(s): 2 channels
 Sampling rate: 44.1 KHz
 Compression mode: Lossy
 Stream size: 110 MiB (6%)
 Alignment: Split accross interleaves
 Interleave, duration: 14040 ms(14sec added in begining)
 Interleave, preload duration: 500 ms
 